<svg xmlns="http://www.w3.org/2000/svg" enable-background="new 0 0 1024 1024" viewBox="0 0 1024 1024"><path d="M938 115.1c0 45.6 0 91.2 0 136.8 0 26.2 0 52.4 0 78.5 0 5.1.1 10.2 0 15.3 0 .1 0 .2 0 .3 0 1.3-.1 1.5-.1 2.8-.1 4.6 1.3-4.2-.1.1-.4 1.3-.8 2.6-1.1 3.9-1.2 4.3 2.3-3.6-.1.1-.7 1.1-1.4 2.3-2 3.4-1.9 3.2 3-2.7-.5.6-.8.7-1.6 1.5-2.3 2.3-3 3.1 3.7-2.1-.1.1-1.1.6-2.3 1.3-3.4 2-3.7 2.3 4.2-1.1-.1.1-1.3.4-2.6.7-3.9 1.1-4.3 1.4 4.5 0-.1.1-1.1 0-2.1.1-3.2.1-25 .3-50 0-75 0 6.7 6.7 13.3 13.3 20 20 0-44.9 0-89.9 0-134.8 0-6.4 0-12.8 0-19.2 0-10.8-9.2-20-20-20-22.2 0-44.5 0-66.7 0-53.2 0-106.4 0-159.6 0-64.3 0-128.6 0-192.9 0-55.7 0-111.4 0-167.1 0-26.9 0-53.8-.6-80.7 0-.4 0-.8 0-1.1 0-10.8 0-20 9.2-20 20 0 44.9 0 89.9 0 134.8 0 6.4 0 12.8 0 19.2 6.7-6.7 13.3-13.3 20-20-21.8 0-43.6 0-65.5 0-3.2 0-6.5 0-9.7 0-.8 0-1.6 0-2.4-.1-4.3-.2.5.2.5.1-.1.2-3.6-.9-3.9-1 .1 0-2.5-.7-2.5-.9.8.3 1.6.6 2.3 1-.8-.4-1.6-.8-2.3-1.2-.3-.2-3.3-1.8-3.3-2.1 2.1 1.7 2.6 2.1 1.5 1.1-.5-.4-1-.9-1.4-1.3-.2-.2-2.8-2.6-2.7-2.9 0-.1 2.4 3.9.4.4-.5-.9-1.1-1.9-1.7-2.8-2.4-3.8 1.2 4.2-.1-.1-.3-.9-.6-1.7-.8-2.6-.1-.4-.2-.9-.3-1.3-.4-2.2-.4-1.8 0 1.3-.5-.4-.2-3.6-.2-4.2 0-1.1 0-2.2 0-3.4 0-46.4 0-92.8 0-139.2 0-23.7 0-47.4 0-71 0-5.4 0-10.7 0-16.1 0-.3 0-.7 0-1 0-1 .1-1.9.1-2.9.1-3.3.2 1.4-.2 1.2-.3-.1 1.3-4.8 1.4-5.2 1.1-3.8-.3 1.2-.5 1.1-.2-.1 1.7-3.2 1.9-3.5.2-.4.5-.7.7-1.1 1.2-1.7 1-1.4-.8.9-.1-.1 1.5-1.7 1.7-1.9.2-.2 2.6-2.8 2.9-2.7-.7.5-1.3 1-2 1.5.7-.5 1.4-1 2.2-1.5.7-.5 1.5-.8 2.3-1.3 1.9-.9 1.6-.8-1.2.4.8-.3 1.7-.6 2.5-.9.8-.3 1.8-.4 2.6-.7 4.3-1.4-4.5 0 .1-.1 1 0 1.8-.1 2.8-.1.1 0 .2 0 .3 0 .6 0 1.2 0 1.8 0 2.7 0 5.3 0 8 0 10.6 0 21.2 0 31.8 0 38.2 0 76.4 0 114.6 0 53.1 0 106.1 0 159.2 0 58.2 0 116.5 0 174.7 0 53.8 0 107.5 0 161.3 0 39.6 0 79.2 0 118.8 0 16.1 0 32.2-.3 48.2 0 0 0 0 0 .1 0 .9 0 1.9.1 2.8.1 4.6.2-4.3-1.3.1.1 1.1.3 2.2.6 3.2.9 4 1.2-.4-.3-.5-.3.1-.1 5.7 2.9 5.6 3.3-.7-.5-1.3-1-2-1.5.7.6 1.3 1.1 1.9 1.7.2.2 2.8 2.6 2.7 2.9-.1.2-2.7-4.3-.8-.9.7 1.1 1.3 2.3 2 3.4 2.3 3.7-1.1-4.2.1.1.2.9.6 1.7.8 2.6.1.4.2.9.3 1.3.4 2.2.4 1.8 0-1.3C938.2 111.3 938 114.5 938 115.1c.2 10.5 9.1 20.5 20 20 10.7-.5 20.2-8.8 20-20-.6-29.3-22.1-52.7-51-56.1-2.8-.3-5.4-.4-8.2-.4-7.8 0-15.5 0-23.3 0-34.7 0-69.4 0-104.1 0-51.9 0-103.8 0-155.7 0-59.3 0-118.7 0-178 0-55.9 0-111.9 0-167.8 0-42.7 0-85.5 0-128.2 0-19.4 0-38.9-.1-58.3 0C70.8 58.7 46.1 84.7 46 116.9c0 17.1 0 34.2 0 51.4 0 53.1 0 106.3 0 159.4 0 5.7 0 11.4 0 17.1.1 19.6 9.1 37 25.1 48.2 12.5 8.8 26.8 9.6 41.5 9.6 13.6 0 27.3 0 40.9 0 8.2 0 16.4 0 24.6 0 10.8 0 20-9.2 20-20 0-44.9 0-89.9 0-134.8 0-6.4 0-12.8 0-19.2-6.7 6.7-13.3 13.3-20 20 22.2 0 44.5 0 66.7 0 53.2 0 106.4 0 159.6 0 64.3 0 128.6 0 192.9 0 55.7 0 111.4 0 167.1 0 26.8 0 53.8.9 80.7 0 .4 0 .8 0 1.1 0-6.7-6.7-13.3-13.3-20-20 0 44.9 0 89.9 0 134.8 0 6.4 0 12.8 0 19.2 0 10.8 9.2 20 20 20 24.1 0 48.2 0 72.3 0 22.5 0 44.2-10.8 54-31.9C977 360.3 978 350 978 339c0-55.8 0-111.5 0-167.3 0-18.9 0-37.8 0-56.6 0-10.5-9.2-20.5-20-20C947.2 95.5 938 103.8 938 115.1zM826 811.9c0 30.2 0 60.4 0 90.5 0 1.9 0 3.8 0 5.7 0 .2 0 .5 0 .7 0 .7 0 1.4-.1 2.1 0 .2 0 .5 0 .7-.2 1.8-.2 1.8 0 .1.5-.4.4-2-.1 0-.4 1.3-.7 2.6-1.1 3.9-.5 1.5-1.1 1.1 0 .1.2-.4.3-.8.5-1.2-.3.6-.6 1.2-.9 1.8-.4.6-1.9 4-2.4 3.9-.4-.1 2.9-3.2.7-1-.6.6-1.2 1.3-1.8 1.9-.4.4-1.1.8-1.4 1.3-1.3 1.7 3.4-2.1.4-.3-.3.2-4.4 2.8-4.6 2.6-.1-.1 3.9-1.4 1.7-.7-.9.3-1.7.6-2.5.8-.6.2-1.3.3-2 .5-3.3 1 .6-.1 1.3 0-1.2-.2-2.9.2-4.2.2-2.8 0-5.6 0-8.5 0-19.4 0-38.8 0-58.2 0-32.4 0-64.8 0-97.3 0-39.5 0-79 0-118.5 0-40.3 0-80.5 0-120.8 0-34.8 0-69.6 0-104.4 0-23.1 0-46.1 0-69.2 0-5.3 0-10.6 0-15.8 0-.7 0-1.4 0-2.2 0-.8 0-3.8.3-4.2-.2-.2-.2 4.4 1 1.3 0-.8-.3-1.7-.4-2.6-.7-.6-.2-1.3-.5-1.9-.6-2.4-.7 3 2.1 1.1.4-.5-.5-5.2-2.4-5.1-3.1.1-.3 3 2.8 1.5 1.1-.6-.6-1.3-1.2-1.9-1.8-.5-.5-.9-1-1.4-1.4-2.8-2.7.9.9.7 1-.4.1-2.5-4.1-2.8-4.5-.7-1.1-1.4-1.1-.1 0 .6 1.6.6 1.6 0-.1-.1-.4-.3-.8-.4-1.3-.3-.9-.4-1.8-.7-2.6-.5-1.7.4-2.6 0 1.3.1-1.3-.2-2.9-.2-4.2 0-.3 0-.6 0-.9 0-2 0-4 0-6.1 0-7.8 0-15.6 0-23.5 0-18.6 0-37.3 0-55.9 0-3.5 0-7.1 0-10.6-13.3 0-26.7 0-40 0 .6 31.1 25.4 56 56.5 56.6 1.7 0 3.3 0 5 0 12.3 0 24.7 0 37 0 49.7 0 99.5 0 149.2 0 63.6 0 127.1 0 190.7 0 52.6 0 105.2 0 157.8 0 14.9 0 29.7 0 44.6 0 3.2 0 6.3 0 9.5 0 15.5-.1 30.7-5.8 41.6-17 10.3-10.7 15.8-24.7 16.1-39.5.2-10.5-9.3-20.5-20-20C835 792.4 826.2 800.7 826 811.9c0 .6.2 3.8-.2 4.2.1-.9.2-1.7.3-2.6-.2.9-.4 1.8-.6 2.6-.1.4-.8 3.7-1.3 3.8.3-.8.6-1.6 1-2.3-.4.8-.8 1.6-1.2 2.3-.2.3-1.8 3.3-2.1 3.3-.4 0 2.9-3.2.7-1-.9.9-1.9 1.8-2.8 2.8-1.6 1.4-1.3 1.2 1-.7-.7.5-1.4 1-2.2 1.5-.3.2-3.3 2.1-3.5 1.9.8-.3 1.6-.6 2.3-1-.8.3-1.7.6-2.5.9-1.1.3-2.2.5-3.3.8-2.7.8 5.1-.1.6 0-1 0-2 .1-3.1.1-2.3 0-4.6 0-6.9 0-12.9 0-25.8 0-38.6 0-49.4 0-98.8 0-148.1 0-61.8 0-123.6 0-185.4 0-52 0-103.9 0-155.9 0-15.3 0-30.6 0-46 0-3.8 0-7.5 0-11.3 0-.7 0-1.4 0-2.2 0-1 0-2-.1-3-.1-4.1-.1 1.3 0 1.2.2-.1.2-3.7-.9-3.9-1-.4-.1-.8-.3-1.3-.4-2-.8-1.7-.6 1.1.5-.3.3-4.2-2.4-4.6-2.6-3.8-2.2 3 3.1-.1-.1-.7-.8-1.5-1.6-2.3-2.3-3-2.7.2.5.2.5-.3 0-1.9-3-2.1-3.3-.2-.4-.4-.8-.6-1.2-.9-1.9-.8-1.6.4 1.2-.4-.1-1.1-3.4-1.3-3.8-.1-.4-.2-.9-.3-1.3-.4-2.2-.4-1.8 0 1.3-.5-.4-.2-3.6-.2-4.2-.2-10.5-9.1-20.5-20-20-10.8.5-20 8.8-20 20 0 30.6 0 61.2 0 91.8 0 7.8.3 15.8 3 23.2 6.5 17.9 21.1 32.6 40.1 36.9 6.8 1.6 13.3 1.6 20.1 1.6 18.9 0 37.9 0 56.8 0 32.8 0 65.5 0 98.3 0 40.1 0 80.2 0 120.3 0 41.1 0 82.1 0 123.2 0 35.3 0 70.5 0 105.8 0 22.8 0 45.6 0 68.5 0 4.8 0 9.5 0 14.3 0 25.2-.1 46.8-15.4 55-39.2 4.9-14 2.8-31.8 2.8-46.4 0-19 0-38 0-57 0-3.6 0-7.3 0-10.9 0-10.5-9.2-20.5-20-20C835.2 792.4 826 800.7 826 811.9z"/><path d="M826,228.5c0,12.1,0,24.2,0,36.3c0,30.7,0,61.4,0,92c0,41.4,0,82.7,0,124.1c0,43.6,0,87.2,0,130.9
				c0,38.1,0,76.2,0,114.2c0,24.1,0,48.3,0,72.4c0,4.4,0.1,8.8,0,13.2c0,0.1,0,0.2,0,0.3c0,0,0,0,0,0.1c0,0.5,0.1-1.5,0,1.4
				c0,0.5-0.1,0.9-0.1,1.4c-0.2,1.8-0.2,1.8,0,0.1c0.1-0.4,0.1-0.9,0.2-1.3c-0.1,0.7-0.3,1.3-0.4,2c-0.2,0.9-0.5,1.7-0.7,2.6
				c-1.4,4.5,1.8-2.7-0.6,1.3c-0.5,0.7-0.9,1.5-1.3,2.3c-0.5,0.8-2.3,2.5-0.3,0.6c2.1-2,0-0.1-0.5,0.5c-0.8,0.8-1.6,1.5-2.3,2.3
				c-2.7,2.8,0.9-0.9,1-0.7c0,0.1-1.9,1.3-2.2,1.5c-0.7,0.5-1.5,0.8-2.3,1.3c-3.4,2.1,1.2-0.7,1.2-0.4c-0.1,0.6-4.6,1.4-5.1,1.6
				c-3.2,1,0.5-0.1,1.3,0c-1.2-0.2-3,0.2-4.2,0.2c-0.2,0-0.4,0-0.6,0c-14.5,0.2-29.1,0-43.6,0c-32.1,0-64.2,0-96.3,0
				c-41.7,0-83.3,0-125,0c-43.6,0-87.1,0-130.7,0c-37.8,0-75.6,0-113.3,0c-24,0-47.9,0-71.9,0c-4.3,0-8.7,0.1-13,0
				c-1.3,0-2.6-0.1-3.9-0.2c-2.7-0.1,3.9,0.9,1.3,0.1c-0.9-0.3-1.8-0.4-2.6-0.6c-0.9-0.2-1.7-0.6-2.5-0.8c-2.5-0.8,3.2,2,1.1,0.4
				c-1.3-0.9-3.1-2-4.5-2.7c-2.3-1.2,2.6,2.6,1,0.7c-0.7-0.8-1.6-1.5-2.4-2.2c0.1,0.1-1.8-1.8-1.7-1.9c0.2-0.4,2.3,3.6,0.8,0.9
				c-0.3-0.5-2.9-4.3-2.6-4.6c0.2-0.2,1.4,4.1,0.5,1.1c-0.3-0.9-0.6-1.7-0.8-2.6c0.1,0.2-0.7-2.6-0.6-2.6c0.3,2.8,0.4,3.5,0.2,1.9
				c-0.1-0.7-0.1-1.4-0.1-2.1c0-0.6,0-1.3,0-1.9c-0.2-14.6,0-29.2,0-43.8c0-32.4,0-64.8,0-97.3c0-41.9,0-83.8,0-125.7
				c0-43.4,0-86.8,0-130.2c0-36.9,0-73.8,0-110.8c0-22.1,0-44.2,0-66.4c0-3,0-5.9,0-8.9c-6.7,6.7-13.3,13.3-20,20
				c22.2,0,44.5,0,66.7,0c53.2,0,106.4,0,159.6,0c64.3,0,128.6,0,192.9,0c55.7,0,111.4,0,167.1,0c26.9,0,53.8,0.6,80.7,0
				c0.4,0,0.8,0,1.1,0c10.5,0,20.5-9.2,20-20c-0.5-10.8-8.8-20-20-20c-22.2,0-44.5,0-66.7,0c-53.2,0-106.4,0-159.6,0
				c-64.3,0-128.6,0-192.9,0c-55.7,0-111.4,0-167.1,0c-26.9,0-53.8-0.6-80.7,0c-0.4,0-0.8,0-1.1,0c-10.8,0-20,9.2-20,20
				c0,12.3,0,24.5,0,36.8c0,31.2,0,62.4,0,93.6c0,41.8,0,83.6,0,125.4c0,44.1,0,88.1,0,132.2c0,37.9,0,75.9,0,113.8
				c0,23.4,0,46.9,0,70.3c0,3.8-0.1,7.5,0,11.3c0.5,31.3,25.6,56.2,56.9,56.6c14.1,0.2,28.3,0,42.4,0c32,0,64,0,96,0
				c42.1,0,84.2,0,126.2,0c44,0,88.1,0,132.1,0c37.9,0,75.9,0,113.8,0c23.8,0,47.6,0,71.4,0c4.1,0,8.2,0.1,12.3,0
				c31.3-0.4,56.3-25.4,56.8-56.7c0.2-13.6,0-27.3,0-40.9c0-31.9,0-63.9,0-95.8c0-42.2,0-84.3,0-126.5c0-43.9,0-87.9,0-131.8
				c0-37.2,0-74.5,0-111.7c0-22.5,0-45,0-67.5c0-3.1,0-6.1,0-9.2c0-10.5-9.2-20.5-20-20C835.2,209,826,217.3,826,228.5z"/><path d="M492.4,397.2c0,34.2,0,68.4,0,102.6c0,54.5,0,108.9,0,163.4c0,12.5,0,24.9,0,37.4c0,10.5,9.2,20.5,20,20
				c10.8-0.5,20-8.8,20-20c0-34.2,0-68.4,0-102.6c0-54.5,0-108.9,0-163.4c0-12.5,0-24.9,0-37.4c0-10.5-9.2-20.5-20-20
				C501.5,377.6,492.4,386,492.4,397.2L492.4,397.2z"/><path d="M383.3,554.1c16.1-16.1,32.1-32.1,48.2-48.2c25.6-25.6,51.3-51.3,76.9-76.9c5.9-5.9,11.8-11.8,17.8-17.8
				c-9.4,0-18.9,0-28.3,0c16,16,32.1,32.1,48.1,48.1c25.7,25.7,51.4,51.4,77.1,77.1c5.9,5.9,11.7,11.7,17.6,17.6
				c7.4,7.4,21,8,28.3,0c7.3-8,7.9-20.4,0-28.3c-16-16-32.1-32.1-48.1-48.1c-25.7-25.7-51.4-51.4-77.1-77.1
				c-5.9-5.9-11.7-11.7-17.6-17.6c-7.6-7.6-20.6-7.7-28.3,0c-16.1,16.1-32.1,32.1-48.2,48.2c-25.6,25.6-51.3,51.3-76.9,76.9
				c-5.9,5.9-11.8,11.8-17.8,17.8c-7.4,7.4-8,21,0,28.3C363,561.5,375.4,562,383.3,554.1L383.3,554.1z"/></svg>